<svg width="586" height="866" viewBox="0 0 586 866" fill="none" xmlns="http://www.w3.org/2000/svg">
<rect x="4" width="437" height="534" fill="#754EF9"/>
<ellipse cx="299.5" cy="296" rx="244.5" ry="216" fill="#754EF9"/>
<ellipse cx="299.5" cy="296.5" rx="189.5" ry="173.5" fill="white"/>
<ellipse cx="299" cy="296" rx="142" ry="129" fill="#754EF9"/>
<path fill-rule="evenodd" clip-rule="evenodd" d="M402.86 117.781C414.419 120.496 421.589 132.068 418.873 143.628L400.987 219.77C398.272 231.33 386.7 238.499 375.14 235.784L367.115 233.899C367.111 233.912 367.107 233.926 367.104 233.94L315.608 257.374L315.608 228.374C315.608 210.587 336.229 163.953 347.408 141.68L350.711 127.616C353.427 116.057 364.999 108.887 376.558 111.602L402.86 117.781Z" fill="#191847"/>
<path fill-rule="evenodd" clip-rule="evenodd" d="M373.742 179.702C362.695 182.67 352.459 182.953 348.179 180.851C337.447 175.578 345.098 138.326 357.302 125.798C369.507 113.271 416.124 117.512 411.609 146.952C410.041 157.17 403.214 165.014 394.518 170.68L394.814 225.637L358.461 217.097L373.742 179.702Z" fill="#F7D1AE"/>
<path fill-rule="evenodd" clip-rule="evenodd" d="M425.716 147.644C424.813 146.056 423.939 144.52 423.043 143.119L423.445 141.661C423.445 141.661 417.225 109.418 397.128 104.697C377.049 99.9807 368.309 108.664 360.879 116.045L360.859 116.065C361.202 127.288 368.707 133.56 377.196 140.652C381.176 143.978 385.371 147.483 389.146 151.765C389.963 151.707 390.793 151.77 391.621 151.964C396.559 153.124 399.508 158.553 398.208 164.089C397.082 168.883 393.139 172.186 388.897 172.233C381.989 193.86 377.107 218.566 381.285 225.808L455.108 278.874L451.108 238.874C458.924 212.042 449.283 202.328 439.573 192.544C430.303 183.204 420.97 173.8 426.707 149.378C426.371 148.796 426.042 148.216 425.716 147.644Z" fill="#191847"/>
<path fill-rule="evenodd" clip-rule="evenodd" d="M227.735 432.705C219.884 447.157 201.484 474.135 176.904 504.714L158.1 498.316C184.754 424.445 205.279 375.877 215.305 361.538C221.93 352.064 262.085 357.975 254.839 377.752C251.801 386.045 241.178 407.96 227.735 432.705ZM300.037 381.355C323.932 388.072 372.81 407.504 386.712 413.506C395.449 417.277 388.509 425.635 380.875 423.905C379.582 423.612 374.998 422.664 368.157 421.249C346.186 416.705 300.938 407.347 266.72 399.421C248.703 395.247 261.617 370.917 280.243 375.916C286.51 377.597 293.17 379.425 300.037 381.355Z" fill="#E6D8CB"/>
<path fill-rule="evenodd" clip-rule="evenodd" d="M210.909 350.819C214.56 343.077 339.562 329.176 339.562 329.176L349.521 330.383L348.481 338.964L259.957 368.229C259.914 369.514 259.683 370.851 259.241 372.236C256.304 401.53 240.131 421.72 224.119 441.71C213.648 454.782 203.246 467.769 196.659 483.159L166.405 475.186C167.558 473.175 170.134 463.791 173.655 450.96C182.535 418.609 197.428 364.347 210.697 351.121C210.743 351.075 210.79 351.029 210.838 350.984C210.86 350.929 210.883 350.874 210.909 350.819Z" fill="#1F28CF"/>
<path fill-rule="evenodd" clip-rule="evenodd" d="M333.907 400.947C341.742 400.458 348.952 400.047 355.108 399.8C394.877 398.203 408.59 380.279 406.971 337.347L335.111 328.636C322.994 330.331 259.123 346.59 225.947 355.334C203.989 361.121 206.954 391.938 217.87 401.188C217.876 401.675 218.05 402.026 218.413 402.218C261.301 424.906 299.812 428.27 324.542 430.43C334.899 431.334 342.839 432.028 347.671 433.841L358.23 412.036L333.907 400.947Z" fill="#2B44FF"/>
<path fill-rule="evenodd" clip-rule="evenodd" d="M376.89 423.052C377.07 421.895 378.236 421.069 379.432 421.327C382.175 421.918 386.694 423.022 388.729 424.253C391.755 426.085 396.923 430.523 396.923 430.523C394.695 433.738 356.876 488.306 356.876 488.306C356.876 488.306 347.182 485.636 349.896 480.391C352.611 475.145 354.313 471.619 354.313 471.619L359.883 436.627C359.972 436.071 360.537 435.689 361.117 435.794L367.16 436.885C367.16 436.885 372.563 433.779 374.51 430.97C375.774 429.146 376.522 425.432 376.89 423.052Z" fill="#E4E4E4"/>
<path fill-rule="evenodd" clip-rule="evenodd" d="M177.68 499.763C178.813 499.395 180.045 500.035 180.308 501.197C180.879 503.73 181.681 507.851 181.417 510.034C181.017 513.327 172.608 532.374 172.608 532.374C170.108 530.874 110.282 512.468 110.282 512.468C110.282 512.468 111.267 502.303 116.929 502.274C122.592 502.244 126.35 502.123 126.35 502.123L159.105 491.58C159.651 491.405 160.232 491.722 160.379 492.276L161.811 497.689C161.811 497.689 166.672 500.806 169.9 501.198C171.969 501.449 175.449 500.486 177.68 499.763Z" fill="white"/>
<path fill-rule="evenodd" clip-rule="evenodd" d="M491.864 388.688C487.564 381.56 465.609 307.741 465.609 307.741L442.05 308.955C442.05 308.955 472.736 387.956 475.051 392.561C478.058 398.543 474.112 407.627 471.436 413.787C471.022 414.74 470.638 415.623 470.316 416.414C474.639 417.977 476.536 415.751 478.536 413.405C480.795 410.754 483.185 407.95 489.351 410.277C491.733 411.176 494.002 412.264 496.218 413.328C503.874 417.002 510.906 420.377 519.848 414.602C521.266 413.686 522.683 410.423 518.644 408.117C508.582 402.371 493.966 392.173 491.864 388.688ZM223.608 321.374L273.487 296.599L280.872 320.307L233.105 331.807C218.502 343.824 207.108 347.374 207.108 346.874C206.064 344.838 207.958 342.974 209.695 341.266C211.071 339.912 212.347 338.656 211.984 337.49C211.162 334.852 202.455 334.088 194.165 333.679C185.875 333.27 188.678 330.288 190.861 328.91C199.811 325.419 210.726 322.907 223.608 321.374Z" fill="#F7D1AE"/>
<path fill-rule="evenodd" clip-rule="evenodd" d="M361.738 204.648L375.176 211.697C374.616 215.08 374.044 219.921 373.389 225.467C371.333 242.873 368.456 267.225 362.548 275.275C342.077 303.163 305.603 314.561 264.978 327.255C259.533 328.956 254.013 330.681 248.447 332.472L240.273 311.182C241.596 310.527 242.909 309.867 244.212 309.201C242.612 308.459 241.372 307.073 240.967 305.334C240.269 302.339 242.313 299.433 245.532 298.843C252.074 297.643 258.054 297.528 263.416 298.542C306.618 272.575 337.555 239.794 361.738 204.648Z" fill="#821F26"/>
<path fill-rule="evenodd" clip-rule="evenodd" d="M408.789 348.577C408.789 348.577 345.917 347.356 311.018 336.725C308.136 335.847 309.689 324.122 311.443 321.081C338.769 273.727 357.193 238.87 361.398 204.188C366.91 207.725 381.788 207.52 381.788 207.52C403.682 246.44 410.767 288.91 408.789 348.577Z" fill="white"/>
<path fill-rule="evenodd" clip-rule="evenodd" d="M487.484 358.729C462.61 257.575 392.71 205.88 392.71 205.88L385.596 205.017L377.732 204.064C376.914 225.014 365.283 254.236 351.79 288.134C330.212 342.347 303.872 408.523 309.386 471.96C324.986 477.203 344.06 477.227 364.71 477.252L364.71 477.252C394.512 477.289 427.595 477.33 458.249 493.072C460.016 468.142 447.693 438.814 435.425 409.619C427.722 391.285 420.041 373.004 415.884 355.897C417.376 355.121 418.338 353.52 418.216 351.714L417.826 345.97C417.663 343.575 415.653 341.696 413.279 341.661C413.072 339.858 412.919 338.072 412.827 336.307C412.334 326.907 414.464 317.936 416.569 309.065L416.569 309.065C417.725 304.195 418.874 299.355 419.578 294.491C435.455 311.158 453.737 339.078 466.431 385.171L492.126 381.419C491.571 378.036 490.963 374.702 490.308 371.416C493.365 370.297 497.604 363.742 495.32 362.287C492.906 360.749 490.291 359.565 487.484 358.729Z" fill="#821F26"/>
<path fill-rule="evenodd" clip-rule="evenodd" d="M387.123 206.438L391.576 226.581L376.137 239.406L387.124 252.286L351.465 296.022L393.78 253.189L383.026 240.241L396.723 228.914L387.123 206.438Z" fill="black" fill-opacity="0.1"/>
<path fill-rule="evenodd" clip-rule="evenodd" d="M358.026 315.351C355.116 314.998 353.022 312.532 353.348 309.842C353.674 307.152 356.297 305.257 359.206 305.609C362.116 305.962 364.21 308.429 363.884 311.119C363.558 313.809 360.935 315.704 358.026 315.351ZM348.045 342.56C345.136 342.208 343.042 339.741 343.368 337.051C343.694 334.361 346.317 332.466 349.226 332.819C352.136 333.171 354.23 335.638 353.904 338.328C353.578 341.018 350.955 342.913 348.045 342.56ZM338.656 364.899C338.329 367.589 340.424 370.055 343.333 370.408C346.243 370.761 348.866 368.866 349.192 366.176C349.518 363.486 347.424 361.019 344.514 360.666C341.605 360.314 338.982 362.209 338.656 364.899Z" fill="black" fill-opacity="0.4"/>
</svg>
